<?xml version="1.0" encoding="utf-8"?>
<!-- Generator: Adobe Illustrator 24.2.3, SVG Export Plug-In . SVG Version: 6.00 Build 0)  -->
<svg version="1.1" id="Layer_1" xmlns="http://www.w3.org/2000/svg" xmlns:xlink="http://www.w3.org/1999/xlink" x="0px" y="0px"
	 viewBox="0 0 457.3 451.7" style="enable-background:new 0 0 457.3 451.7;" xml:space="preserve">
<style type="text/css">
	.st0{fill:#2B3990;}
	.st1{fill:#FFF200;}
	.st2{fill:#5F7738;}
	.st3{fill:#808285;stroke:#808285;stroke-width:6;stroke-miterlimit:10;}
	.st4{fill:#A35341;}
	.st5{fill:#F1F2F2;}
	.st6{fill:none;stroke:#E6E7E8;stroke-width:5;stroke-miterlimit:10;}
</style>
<g>
	<path class="st0" d="M237.9,212.6c0,0-17.6,10.5-14.9,19.6c1.1,2.5,3.6,9.5,14,6.2c10.4-3.4,1.9-23.6,2.6-25
		C240.2,211.9,237.9,212.6,237.9,212.6z"/>
	<path class="st0" d="M223.4,266.8c0,0-17.6,10.5-14.9,19.6c1.1,2.5,3.6,9.5,14,6.2c10.4-3.4,1.9-23.6,2.6-25
		C225.7,266,223.4,266.8,223.4,266.8z"/>
	<path class="st0" d="M260.1,238.3c0,0-17.6,10.5-14.9,19.6c1.1,2.5,3.6,9.5,14,6.2c10.4-3.4,1.9-23.6,2.6-25
		C262.4,237.5,260.1,238.3,260.1,238.3z"/>
	<path class="st0" d="M291.2,212.6c0,0-17.6,10.5-14.9,19.6c1.1,2.5,3.6,9.5,14,6.2s1.9-23.6,2.6-25
		C293.5,211.9,291.2,212.6,291.2,212.6z"/>
	<polygon class="st1" points="155.1,179.1 202.9,186.4 162.8,258.1 180.1,260.7 150.2,334.1 150.3,286 127.9,282.6 	"/>
	<g>
		<path class="st2" d="M50.2,371.2c0,0,5.2,23.6,0,37.2c5.2,0,13.6,0,13.6,0S67.5,381.2,50.2,371.2z"/>
		<path class="st2" d="M64.2,345.6c-0.4-4.2,14.9,19.9,13.8,28.8c0.1,5.8-3,29.9,0.1,34c-6.9,0-6.9,0-6.9,0s-0.6-19.1-6.9-24.6
			C64.2,377,66.6,368.6,64.2,345.6z"/>
		<path class="st2" d="M107.3,333.5c0,0-35.6,35.6-24.1,74.9c6.3,0,10.9,0,10.9,0s3.2-34,6.4-37.5
			C101.6,364.1,107.3,333.5,107.3,333.5z"/>
		<path class="st2" d="M112,354.5c0,0-13.1,29.4-11.5,54c11.5,0,11.5,0,11.5,0S123,368.1,112,354.5z"/>
		<path class="st2" d="M118.8,352.4c1.6,4.7,4.7,44.5,0,56.1c25.1,0,25.1,0,25.1,0s-0.5-28.3-19.9-54
			C118.8,352.4,118.8,352.4,118.8,352.4z"/>
		<path class="st2" d="M135.6,361.3c0,0,4.7-12,14.7-16.2c0,8.1-1.6,45,5.8,58.1c0,5.2,0,5.2,0,5.2h-5.2
			C150.8,408.4,141.9,366.5,135.6,361.3z"/>
		<path class="st2" d="M116.9,347.1c0,0,0.6-2,4.8,0c1.3-2.1,1.9-10.8,5-12.6c0-1.1-1.6-3.7-4.9,2.1
			C118.5,342.4,117.3,345.1,116.9,347.1z"/>
	</g>
	<g>
		<path class="st2" d="M160.9,371.7c0,0,5.2,23.6,0,37.2c5.2,0,13.6,0,13.6,0S178.2,381.7,160.9,371.7z"/>
		<path class="st2" d="M174.8,346.1c-0.4-4.2,14.9,19.9,13.8,28.8c0.1,5.8-3,29.9,0.1,34c-6.9,0-6.9,0-6.9,0s-0.6-19.1-6.9-24.6
			C174.8,377.5,177.2,369.1,174.8,346.1z"/>
		<path class="st2" d="M218,334c0,0-35.6,35.6-24.1,74.9c6.3,0,10.9,0,10.9,0s3.2-34,6.4-37.5C212.2,364.5,218,334,218,334z"/>
		<path class="st2" d="M222.7,355c0,0-13.1,29.4-11.5,54c11.5,0,11.5,0,11.5,0S233.7,368.6,222.7,355z"/>
		<path class="st2" d="M229.5,352.9c1.6,4.7,4.7,44.5,0,56.1c25.1,0,25.1,0,25.1,0s-0.5-28.3-19.9-54
			C229.5,352.9,229.5,352.9,229.5,352.9z"/>
		<path class="st2" d="M246.3,361.8c0,0,4.7-12,14.7-16.2c0,8.1-1.6,45,5.8,58.1c0,5.2,0,5.2,0,5.2h-5.2
			C261.4,408.9,252.5,367,246.3,361.8z"/>
		<path class="st2" d="M227.6,347.6c0,0,0.6-2,4.8,0c1.3-2.1,1.9-10.8,5-12.6c0-1.1-1.6-3.7-4.9,2.1S227.9,345.5,227.6,347.6z"/>
	</g>
	<path class="st3" d="M88.3,203h235.5c0,0,76.6-48.6-15-99.1c-20.6,0-20.6,0-20.6,0s-3.7-88.9-80.4-71.6
		c-25.9,9.9-44.9,31.1-44.9,31.1s-67.3,4-54.2,53.1C88.3,124.5,41.6,147,88.3,203z"/>
	<path class="st4" d="M267.6,295c0,0-29.9,10.6-5.6,21.5c4,1.3,8.7,3.3,16,2.9C277.7,317.5,267.6,295,267.6,295z"/>
	<g>
		<ellipse class="st4" cx="336.6" cy="280" rx="72.8" ry="28.5"/>
		<ellipse class="st5" cx="336.6" cy="279.2" rx="58.4" ry="22.9"/>
		<ellipse class="st4" cx="336.6" cy="279.2" rx="50.9" ry="18.4"/>
		<g>
			<g>
				<g>
					<path class="st4" d="M265.2,280.8c5,42.6,35.1,75.4,71.6,75.4c35.5,0,65-31.1,71.2-72c-18.3,12.5-42.5,20.1-69.1,20.1
						C310.1,304.3,284,295.3,265.2,280.8z"/>
				</g>
			</g>
		</g>
		<path class="st4" d="M405.6,293.6c0,0,29.9,10.6,5.6,21.5c-4,1.3-8.7,3.3-16,2.9C395.5,316,405.6,293.6,405.6,293.6z"/>
		<path class="st6" d="M263.8,288.2c0,0,61.1,44.9,145.7,0"/>
		<rect x="351" y="258.9" class="st5" width="4.6" height="39.8"/>
		<rect x="365.2" y="261.1" class="st5" width="4.6" height="36"/>
		<rect x="378.4" y="265.9" class="st5" width="4.6" height="25.8"/>
		<rect x="334.3" y="258.4" class="st5" width="4.6" height="41.6"/>
		<rect x="318.3" y="258.4" class="st5" width="4.6" height="41.6"/>
		<rect x="303.9" y="260.8" class="st5" width="4.6" height="36"/>
		<rect x="290.2" y="266.5" class="st5" width="4.6" height="25.3"/>
		<path class="st4" d="M355.9,348.5l19.3,51.1c0,0,7.8,4.7,8.3-4.2c0-4.7-19-52.1-19-52.1L355.9,348.5z"/>
		<path class="st4" d="M325.5,349.2l-21.5,58c0,0-8.7,5.3-9.3-4.7c0-5.3,21.2-59.2,21.2-59.2L325.5,349.2z"/>
		<path class="st4" d="M369.2,377.1l-54.6,0c0,0-7.1-5.7,1-9.3c4.4-1.7,55.5-0.6,55.5-0.6L369.2,377.1z"/>
		<circle class="st4" cx="378.4" cy="392.9" r="15.8"/>
		<circle class="st5" cx="378.4" cy="392.9" r="8.9"/>
	</g>
	<path class="st0" d="M122.4,218.5c0,0-17.6,10.5-14.9,19.6c1.1,2.5,3.6,9.5,14,6.2s1.9-23.6,2.6-25
		C124.7,217.8,122.4,218.5,122.4,218.5z"/>
	<path class="st0" d="M203.9,226c0,0-17.6,10.5-14.9,19.6c1.1,2.5,3.6,9.5,14,6.2s1.9-23.6,2.6-25C206.2,225.3,203.9,226,203.9,226z
		"/>
	<path class="st0" d="M190.9,297c0,0-17.6,10.5-14.9,19.6c1.1,2.5,3.6,9.5,14,6.2c10.4-3.4,1.9-23.6,2.6-25
		C193.2,296.3,190.9,297,190.9,297z"/>
	<path class="st0" d="M93.3,226c0,0-17.6,10.5-14.9,19.6c1.1,2.5,3.6,9.5,14,6.2s1.9-23.6,2.6-25C95.5,225.3,93.3,226,93.3,226z"/>
	<path class="st0" d="M76.6,288.8c0,0-17.6,10.5-14.9,19.6c1.1,2.5,3.6,9.5,14,6.2s1.9-23.6,2.6-25
		C78.8,288.1,76.6,288.8,76.6,288.8z"/>
	<path class="st0" d="M105.8,260.7c0,0-17.6,10.5-14.9,19.6c1.1,2.5,3.6,9.5,14,6.2s1.9-23.6,2.6-25S105.8,260.7,105.8,260.7z"/>
	<path class="st0" d="M114.1,297c0,0-17.6,10.5-14.9,19.6c1.1,2.5,3.6,9.5,14,6.2s1.9-23.6,2.6-25C116.4,296.3,114.1,297,114.1,297z
		"/>
</g>
</svg>
