<?xml version="1.0" encoding="utf-8"?>
<!-- Generator: Adobe Illustrator 24.2.3, SVG Export Plug-In . SVG Version: 6.00 Build 0)  -->
<svg version="1.1" id="Layer_1" xmlns="http://www.w3.org/2000/svg" xmlns:xlink="http://www.w3.org/1999/xlink" x="0px" y="0px"
	 viewBox="0 0 457.3 451.7" style="enable-background:new 0 0 457.3 451.7;" xml:space="preserve">
<style type="text/css">
	.st0{fill:#5F7738;}
	.st1{fill:#FFE55E;}
	.st2{fill:#FFFFFF;stroke:#FFFFFF;stroke-width:6;stroke-miterlimit:10;}
	.st3{fill:#A35341;}
	.st4{fill:#F1F2F2;}
	.st5{fill:none;stroke:#E6E7E8;stroke-width:5;stroke-miterlimit:10;}
</style>
<g>
	<path class="st0" d="M50.2,371.2c0,0,5.2,23.6,0,37.2c5.2,0,13.6,0,13.6,0S67.5,381.2,50.2,371.2z"/>
	<path class="st0" d="M64.2,345.6c-0.4-4.2,14.9,19.9,13.8,28.8c0.1,5.8-3,29.9,0.1,34c-6.9,0-6.9,0-6.9,0s-0.6-19.1-6.9-24.6
		C64.2,377,66.6,368.6,64.2,345.6z"/>
	<path class="st0" d="M107.3,333.5c0,0-35.6,35.6-24.1,74.9c6.3,0,10.9,0,10.9,0s3.2-34,6.4-37.5
		C101.6,364.1,107.3,333.5,107.3,333.5z"/>
	<path class="st0" d="M112,354.5c0,0-13.1,29.4-11.5,54c11.5,0,11.5,0,11.5,0S123,368.1,112,354.5z"/>
	<path class="st0" d="M118.8,352.4c1.6,4.7,4.7,44.5,0,56.1c25.1,0,25.1,0,25.1,0s-0.5-28.3-19.9-54
		C118.8,352.4,118.8,352.4,118.8,352.4z"/>
	<path class="st0" d="M135.6,361.3c0,0,4.7-12,14.7-16.2c0,8.1-1.6,45,5.8,58.1c0,5.2,0,5.2,0,5.2h-5.2
		C150.8,408.4,141.9,366.5,135.6,361.3z"/>
	<path class="st0" d="M116.9,347.1c0,0,0.6-2,4.8,0c1.3-2.1,1.9-10.8,5-12.6c0-1.1-1.6-3.7-4.9,2.1
		C118.5,342.4,117.3,345.1,116.9,347.1z"/>
</g>
<g>
	<path class="st0" d="M160.9,371.7c0,0,5.2,23.6,0,37.2c5.2,0,13.6,0,13.6,0S178.2,381.7,160.9,371.7z"/>
	<path class="st0" d="M174.8,346.1c-0.4-4.2,14.9,19.9,13.8,28.8c0.1,5.8-3,29.9,0.1,34c-6.9,0-6.9,0-6.9,0s-0.6-19.1-6.9-24.6
		C174.8,377.5,177.2,369.1,174.8,346.1z"/>
	<path class="st0" d="M218,334c0,0-35.6,35.6-24.1,74.9c6.3,0,10.9,0,10.9,0s3.2-34,6.4-37.5C212.2,364.5,218,334,218,334z"/>
	<path class="st0" d="M222.7,355c0,0-13.1,29.4-11.5,54c11.5,0,11.5,0,11.5,0S233.7,368.6,222.7,355z"/>
	<path class="st0" d="M229.5,352.9c1.6,4.7,4.7,44.5,0,56.1c25.1,0,25.1,0,25.1,0s-0.5-28.3-19.9-54
		C229.5,352.9,229.5,352.9,229.5,352.9z"/>
	<path class="st0" d="M246.3,361.8c0,0,4.7-12,14.7-16.2c0,8.1-1.6,45,5.8,58.1c0,5.2,0,5.2,0,5.2h-5.2
		C261.4,408.9,252.5,367,246.3,361.8z"/>
	<path class="st0" d="M227.6,347.6c0,0,0.6-2,4.8,0c1.3-2.1,1.9-10.8,5-12.6c0-1.1-1.6-3.7-4.9,2.1S227.9,345.5,227.6,347.6z"/>
</g>
<g>
	<circle class="st1" cx="170" cy="179.2" r="73"/>
	<path class="st2" d="M161.4,263.9h138.1c0,0,44.9-28.5-8.8-58.1c-12.1,0-12.1,0-12.1,0s-2.2-52.1-47.1-42
		c-15.2,5.8-26.3,18.2-26.3,18.2s-39.5,2.4-31.8,31.1C161.4,217.9,134,231.1,161.4,263.9z"/>
	<path class="st1" d="M261.8,70.5l-30.9,36.1c0,0-5,12.9,6.6,7.8c2.8-2.5,30.6-36.3,30.6-36.3S273.2,67.1,261.8,70.5z"/>
	<path class="st1" d="M164.6,43.6l0.7,47.5c0,0,4.7,13,10.1,1.4c0.4-3.7-1.1-47.5-1.1-47.5S170.9,33.5,164.6,43.6z"/>
	<path class="st1" d="M67.7,77.4L99,113.2c0,0,12,6.8,8.6-5.5c-2-3.1-31.6-35.5-31.6-35.5S66,65.6,67.7,77.4z"/>
	<path class="st1" d="M36.4,180.2l47.5,1.9c0,0,13.2-4,2-10c-3.6-0.6-47.5-1.6-47.5-1.6S26.7,173.3,36.4,180.2z"/>
	<path class="st1" d="M74,285.1l33.5-33.7c0,0,6-12.5-6.1-8.2c-2.9,2.2-33.2,34-33.2,34S62.3,287.7,74,285.1z"/>
</g>
<g>
	<path class="st3" d="M267.6,295c0,0-29.9,10.6-5.6,21.5c4,1.3,8.7,3.3,16,2.9C277.7,317.5,267.6,295,267.6,295z"/>
	<ellipse class="st3" cx="336.6" cy="280" rx="72.8" ry="28.5"/>
	<ellipse class="st4" cx="336.6" cy="279.2" rx="58.4" ry="22.9"/>
	<ellipse class="st3" cx="336.6" cy="279.2" rx="50.9" ry="18.4"/>
	<g>
		<g>
			<g>
				<path class="st3" d="M265.2,280.8c5,42.6,35.1,75.4,71.6,75.4c35.5,0,65-31.1,71.2-72c-18.3,12.5-42.5,20.1-69.1,20.1
					C310.1,304.3,284,295.3,265.2,280.8z"/>
			</g>
		</g>
	</g>
	<path class="st3" d="M405.6,293.6c0,0,29.9,10.6,5.6,21.5c-4,1.3-8.7,3.3-16,2.9C395.5,316,405.6,293.6,405.6,293.6z"/>
	<path class="st5" d="M263.8,288.2c0,0,61.1,44.9,145.7,0"/>
	<rect x="351" y="258.9" class="st4" width="4.6" height="39.8"/>
	<rect x="365.2" y="261.1" class="st4" width="4.6" height="36"/>
	<rect x="378.4" y="265.9" class="st4" width="4.6" height="25.8"/>
	<rect x="334.3" y="258.4" class="st4" width="4.6" height="41.6"/>
	<rect x="318.3" y="258.4" class="st4" width="4.6" height="41.6"/>
	<rect x="303.9" y="260.8" class="st4" width="4.6" height="36"/>
	<rect x="290.2" y="266.5" class="st4" width="4.6" height="25.3"/>
	<path class="st3" d="M355.9,348.5l19.3,51.1c0,0,7.8,4.7,8.3-4.2c0-4.7-19-52.1-19-52.1L355.9,348.5z"/>
	<path class="st3" d="M325.5,349.2l-21.5,58c0,0-8.7,5.3-9.3-4.7c0-5.3,21.2-59.2,21.2-59.2L325.5,349.2z"/>
	<path class="st3" d="M369.2,377.1l-54.6,0c0,0-7.1-5.7,1-9.3c4.4-1.7,55.5-0.6,55.5-0.6L369.2,377.1z"/>
	<circle class="st3" cx="378.4" cy="392.9" r="15.8"/>
	<circle class="st4" cx="378.4" cy="392.9" r="8.9"/>
	<path class="st4" d="M324,203.5c-0.8-0.2-1.6-0.5-2.4-0.5c-2.2,0.2-5.5,1.1-0.8,4.4c6.6,4.5,0.6,10.3-1.4,13.6
		c-5.7,4.5-3.7,12.8-2.6,15.2c5.4,6.6,6.6,0,6.3-2.5c-4.6-1.9,3.5-14.7,5.1-17.5C333,205.5,327.4,205.6,324,203.5z"/>
	<path class="st4" d="M342.5,203.5c-0.8-0.2-1.6-0.5-2.4-0.5c-2.2,0.2-5.5,1.1-0.8,4.4c6.6,4.5,0.6,10.3-1.4,13.6
		c-5.7,4.5-3.7,12.8-2.6,15.2c5.4,6.6,6.6,0,6.3-2.5c-4.6-1.9,3.5-14.7,5.1-17.5C351.5,205.5,345.9,205.6,342.5,203.5z"/>
	<path class="st4" d="M363.8,203.5c-0.8-0.2-1.6-0.5-2.4-0.5c-2.2,0.2-5.5,1.1-0.8,4.4c6.6,4.5,0.6,10.3-1.4,13.6
		c-5.7,4.5-3.7,12.8-2.6,15.2c5.4,6.6,6.6,0,6.3-2.5c-4.6-1.9,3.5-14.7,5.1-17.5C372.8,205.5,367.2,205.6,363.8,203.5z"/>
</g>
</svg>
