<?xml version="1.0" encoding="utf-8"?>
<!-- Generator: Adobe Illustrator 24.2.3, SVG Export Plug-In . SVG Version: 6.00 Build 0)  -->
<svg version="1.1" id="Layer_1" xmlns="http://www.w3.org/2000/svg" xmlns:xlink="http://www.w3.org/1999/xlink" x="0px" y="0px"
	 viewBox="0 0 457.3 451.7" style="enable-background:new 0 0 457.3 451.7;" xml:space="preserve">
<style type="text/css">
	.st0{fill:#FFE55E;}
	.st1{fill:#A35341;}
	.st2{fill:#F1F2F2;}
	.st3{fill:none;stroke:#E6E7E8;stroke-width:5;stroke-miterlimit:10;}
	.st4{fill:#E8A423;}
	.st5{fill:#9E752B;}
	.st6{fill:#8E6925;}
	.st7{fill:#005280;}
	.st8{fill:#A5A7AA;}
	.st9{fill:#4783C4;}
	.st10{fill:#5C489D;}
	.st11{fill:#9C6AAD;}
	.st12{fill:#5F7738;}
</style>
<g>
	<circle class="st0" cx="222.5" cy="163" r="78.4"/>
	<path class="st0" d="M321.2,46.2L288,85c0,0-5.4,13.9,7.1,8.4c3-2.7,32.9-39,32.9-39S333.4,42.6,321.2,46.2z"/>
	<path class="st0" d="M216.7,17.3l0.8,51c0,0,5.1,14,10.9,1.5c0.4-4-1.2-51-1.2-51S223.5,6.5,216.7,17.3z"/>
	<path class="st0" d="M112.6,53.6l33.6,38.5c0,0,12.9,7.3,9.2-5.9c-2.1-3.3-34-38.2-34-38.2S110.8,41,112.6,53.6z"/>
	<path class="st0" d="M78.9,164.1l51,2c0,0,14.2-4.3,2.1-10.7c-3.9-0.6-51-1.7-51-1.7S68.5,156.7,78.9,164.1z"/>
	<path class="st0" d="M322.3,167.2l51,2c0,0,14.2-4.3,2.1-10.7c-3.9-0.6-51-1.7-51-1.7S311.9,159.8,322.3,167.2z"/>
	<path class="st0" d="M119.3,276.8l36-36.2c0,0,6.4-13.4-6.6-8.8c-3.1,2.4-35.7,36.5-35.7,36.5S106.8,279.6,119.3,276.8z"/>
	<path class="st0" d="M226.6,313.4l2.1-51c0,0-4.3-14.3-10.8-2.1c-0.7,3.8-1.6,51-1.6,51S219.3,323.9,226.6,313.4z"/>
	<path class="st0" d="M333.1,274.1l-29.2-41.9c0,0-12.1-8.7-9.8,4.9c1.8,3.5,29.6,41.6,29.6,41.6S333.6,286.9,333.1,274.1z"/>
</g>
<g>
	<path class="st1" d="M267.6,295c0,0-29.9,10.6-5.6,21.5c4,1.3,8.7,3.3,16,2.9C277.7,317.5,267.6,295,267.6,295z"/>
	<ellipse class="st1" cx="336.6" cy="280" rx="72.8" ry="28.5"/>
	<ellipse class="st2" cx="336.6" cy="279.2" rx="58.4" ry="22.9"/>
	<ellipse class="st1" cx="336.6" cy="279.2" rx="50.9" ry="18.4"/>
	<g>
		<g>
			<g>
				<path class="st1" d="M265.2,280.8c5,42.6,35.1,75.4,71.6,75.4c35.5,0,65-31.1,71.2-72c-18.3,12.5-42.5,20.1-69.1,20.1
					C310.1,304.3,284,295.3,265.2,280.8z"/>
			</g>
		</g>
	</g>
	<path class="st1" d="M405.6,293.6c0,0,29.9,10.6,5.6,21.5c-4,1.3-8.7,3.3-16,2.9C395.5,316,405.6,293.6,405.6,293.6z"/>
	<path class="st3" d="M263.8,288.2c0,0,61.1,44.9,145.7,0"/>
	<rect x="351" y="258.9" class="st2" width="4.6" height="39.8"/>
	<rect x="365.2" y="261.1" class="st2" width="4.6" height="36"/>
	<rect x="378.4" y="265.9" class="st2" width="4.6" height="25.8"/>
	<rect x="334.3" y="258.4" class="st2" width="4.6" height="41.6"/>
	<rect x="318.3" y="258.4" class="st2" width="4.6" height="41.6"/>
	<rect x="303.9" y="260.8" class="st2" width="4.6" height="36"/>
	<rect x="290.2" y="266.5" class="st2" width="4.6" height="25.3"/>
	<path class="st1" d="M355.9,348.5l19.3,51.1c0,0,7.8,4.7,8.3-4.2c0-4.7-19-52.1-19-52.1L355.9,348.5z"/>
	<path class="st1" d="M325.5,349.2l-21.5,58c0,0-8.7,5.3-9.3-4.7c0-5.3,21.2-59.2,21.2-59.2L325.5,349.2z"/>
	<path class="st1" d="M369.2,377.1h-54.6c0,0-7.1-5.7,1-9.3c4.4-1.7,55.5-0.6,55.5-0.6L369.2,377.1z"/>
	<circle class="st1" cx="378.4" cy="392.9" r="15.8"/>
	<circle class="st2" cx="378.4" cy="392.9" r="8.9"/>
	<path class="st2" d="M324,203.5c-0.8-0.2-1.6-0.5-2.4-0.5c-2.2,0.2-5.5,1.1-0.8,4.4c6.6,4.5,0.6,10.3-1.4,13.6
		c-5.7,4.5-3.7,12.8-2.6,15.2c5.4,6.6,6.6,0,6.3-2.5c-4.6-1.9,3.5-14.7,5.1-17.5C333,205.5,327.4,205.6,324,203.5z"/>
	<path class="st2" d="M342.5,203.5c-0.8-0.2-1.6-0.5-2.4-0.5c-2.2,0.2-5.5,1.1-0.8,4.4c6.6,4.5,0.6,10.3-1.4,13.6
		c-5.7,4.5-3.7,12.8-2.6,15.2c5.4,6.6,6.6,0,6.3-2.5c-4.6-1.9,3.5-14.7,5.1-17.5C351.5,205.5,345.9,205.6,342.5,203.5z"/>
	<path class="st2" d="M363.8,203.5c-0.8-0.2-1.6-0.5-2.4-0.5c-2.2,0.2-5.5,1.1-0.8,4.4c6.6,4.5,0.6,10.3-1.4,13.6
		c-5.7,4.5-3.7,12.8-2.6,15.2c5.4,6.6,6.6,0,6.3-2.5c-4.6-1.9,3.5-14.7,5.1-17.5C372.8,205.5,367.2,205.6,363.8,203.5z"/>
</g>
<g>
	<polygon class="st4" points="180.8,241.3 64.5,337 134.4,394.8 250.9,294.4 	"/>
	<polygon class="st5" points="65,336 63.9,346.8 134.1,409 135.8,396.1 	"/>
	<polygon class="st5" points="251.3,294.5 240.2,331.9 232.9,338.4 238.2,320.3 134.4,409.1 134.8,394.5 	"/>
</g>
<g>
	<circle class="st5" cx="189.1" cy="284.3" r="14.2"/>
	<circle class="st6" cx="188.7" cy="286.1" r="14.2"/>
</g>
<g>
	<path class="st7" d="M160,310.6l-5.7-2.7c-2.9-1.3-4.1-4.7-2.8-7.6l2.7-5.7c1.3-2.9,4.7-4.1,7.6-2.8l5.7,2.7
		c2.9,1.3,4.1,4.7,2.8,7.6l-2.7,5.7C166.2,310.7,162.8,311.9,160,310.6z"/>
	<path class="st8" d="M158.7,310l-5.7-2.7c-2.9-1.3-4.1-4.7-2.8-7.6l2.7-5.7c1.3-2.9,4.7-4.1,7.6-2.8l5.7,2.7
		c2.9,1.3,4.1,4.7,2.8,7.6l-2.7,5.7C164.9,310.1,161.5,311.3,158.7,310z"/>
	<path class="st9" d="M158.7,310l-5.7-2.7c-2.9-1.3-4.1-4.7-2.8-7.6l2.7-5.7c1.3-2.9,4.7-4.1,7.6-2.8l5.7,2.7
		c2.9,1.3,4.1,4.7,2.8,7.6l-2.7,5.7C164.9,310.1,161.5,311.3,158.7,310z"/>
</g>
<g>
	<path class="st10" d="M168.7,327.2l-6.2-1.4c-3.1-0.7-5-3.8-4.3-6.9l1.4-6.2c0.7-3.1,3.8-5,6.9-4.3l6.2,1.4c3.1,0.7,5,3.8,4.3,6.9
		l-1.4,6.2C174.8,326,171.8,328,168.7,327.2z"/>
	<path class="st8" d="M167.3,326.9l-6.2-1.4c-3.1-0.7-5-3.8-4.3-6.9l1.4-6.2c0.7-3.1,3.8-5,6.9-4.3l6.2,1.4c3.1,0.7,5,3.8,4.3,6.9
		l-1.4,6.2C173.5,325.7,170.4,327.6,167.3,326.9z"/>
	<path class="st11" d="M167.3,326.9l-6.2-1.4c-3.1-0.7-5-3.8-4.3-6.9l1.4-6.2c0.7-3.1,3.8-5,6.9-4.3l6.2,1.4c3.1,0.7,5,3.8,4.3,6.9
		l-1.4,6.2C173.5,325.7,170.4,327.6,167.3,326.9z"/>
</g>
<g>
	<path class="st12" d="M50.2,371.2c0,0,5.2,23.6,0,37.2c5.2,0,13.6,0,13.6,0S67.5,381.2,50.2,371.2z"/>
	<path class="st12" d="M64.2,345.6c-0.4-4.2,14.9,19.9,13.8,28.8c0.1,5.8-3,29.9,0.1,34c-6.9,0-6.9,0-6.9,0s-0.6-19.1-6.9-24.6
		C64.2,377,66.6,368.6,64.2,345.6z"/>
	<path class="st12" d="M107.3,333.5c0,0-35.6,35.6-24.1,74.9c6.3,0,10.9,0,10.9,0s3.2-34,6.4-37.5
		C101.6,364.1,107.3,333.5,107.3,333.5z"/>
	<path class="st12" d="M112,354.5c0,0-13.1,29.4-11.5,54c11.5,0,11.5,0,11.5,0S123,368.1,112,354.5z"/>
	<path class="st12" d="M118.8,352.4c1.6,4.7,4.7,44.5,0,56.1c25.1,0,25.1,0,25.1,0s-0.5-28.3-19.9-54
		C118.8,352.4,118.8,352.4,118.8,352.4z"/>
	<path class="st12" d="M135.6,361.3c0,0,4.7-12,14.7-16.2c0,8.1-1.6,45,5.8,58.1c0,5.2,0,5.2,0,5.2h-5.2
		C150.8,408.4,141.9,366.5,135.6,361.3z"/>
	<path class="st12" d="M116.9,347.1c0,0,0.6-2,4.8,0c1.3-2.1,1.9-10.8,5-12.6c0-1.1-1.6-3.7-4.9,2.1
		C118.5,342.4,117.3,345.1,116.9,347.1z"/>
</g>
<g>
	<path class="st12" d="M160.9,371.7c0,0,5.2,23.6,0,37.2c5.2,0,13.6,0,13.6,0S178.2,381.7,160.9,371.7z"/>
	<path class="st12" d="M174.8,346.1c-0.4-4.2,14.9,19.9,13.8,28.8c0.1,5.8-3,29.9,0.1,34c-6.9,0-6.9,0-6.9,0s-0.6-19.1-6.9-24.6
		C174.8,377.5,177.2,369.1,174.8,346.1z"/>
	<path class="st12" d="M218,334c0,0-35.6,35.6-24.1,74.9c6.3,0,10.9,0,10.9,0s3.2-34,6.4-37.5C212.2,364.5,218,334,218,334z"/>
	<path class="st12" d="M222.7,355c0,0-13.1,29.4-11.5,54c11.5,0,11.5,0,11.5,0S233.7,368.6,222.7,355z"/>
	<path class="st12" d="M229.5,352.9c1.6,4.7,4.7,44.5,0,56.1c25.1,0,25.1,0,25.1,0s-0.5-28.3-19.9-54
		C229.5,352.9,229.5,352.9,229.5,352.9z"/>
	<path class="st12" d="M246.3,361.8c0,0,4.7-12,14.7-16.2c0,8.1-1.6,45,5.8,58.1c0,5.2,0,5.2,0,5.2h-5.2
		C261.4,408.9,252.5,367,246.3,361.8z"/>
	<path class="st12" d="M227.6,347.6c0,0,0.6-2,4.8,0c1.3-2.1,1.9-10.8,5-12.6c0-1.1-1.6-3.7-4.9,2.1S227.9,345.5,227.6,347.6z"/>
</g>
</svg>
